<svg width="211" height="152" viewBox="0 0 211 152" fill="none" xmlns="http://www.w3.org/2000/svg">
<path d="M23.552 89.072C25.4507 89.072 27.1467 88.752 28.64 88.112C30.1333 87.472 31.392 86.576 32.416 85.424C33.4613 84.272 34.2507 82.896 34.784 81.296C35.3387 79.696 35.616 77.936 35.616 76.016V48.144H41.792V76.016C41.792 78.6613 41.3653 81.1147 40.512 83.376C39.68 85.6373 38.4747 87.6 36.896 89.264C35.3387 90.9067 33.4293 92.1973 31.168 93.136C28.9067 94.0747 26.368 94.544 23.552 94.544C20.736 94.544 18.1973 94.0747 15.936 93.136C13.6747 92.1973 11.7547 90.9067 10.176 89.264C8.59733 87.6 7.38133 85.6373 6.528 83.376C5.696 81.1147 5.28 78.6613 5.28 76.016V48.144H11.456V75.984C11.456 77.904 11.7227 79.664 12.256 81.264C12.8107 82.864 13.6 84.24 14.624 85.392C15.6693 86.544 16.9387 87.4507 18.432 88.112C19.9467 88.752 21.6533 89.072 23.552 89.072ZM65.6225 70.352C67.4145 70.352 68.9932 70.1387 70.3585 69.712C71.7452 69.264 72.8972 68.6453 73.8145 67.856C74.7532 67.0453 75.4572 66.0853 75.9265 64.976C76.3958 63.8667 76.6305 62.64 76.6305 61.296C76.6305 58.5653 75.7345 56.5067 73.9425 55.12C72.1505 53.7333 69.4625 53.04 65.8785 53.04H59.0945V70.352H65.6225ZM86.8065 94H81.3025C80.1718 94 79.3398 93.5627 78.8065 92.688L66.9025 76.304C66.5398 75.792 66.1452 75.4293 65.7185 75.216C65.3132 74.9813 64.6732 74.864 63.7985 74.864H59.0945V94H52.9185V48.144H65.8785C68.7798 48.144 71.2865 48.4427 73.3985 49.04C75.5105 49.616 77.2492 50.4587 78.6145 51.568C80.0012 52.6773 81.0252 54.0213 81.6865 55.6C82.3478 57.1573 82.6785 58.9067 82.6785 60.848C82.6785 62.4693 82.4225 63.984 81.9105 65.392C81.3985 66.8 80.6518 68.0693 79.6705 69.2C78.7105 70.3093 77.5265 71.2587 76.1185 72.048C74.7318 72.8373 73.1532 73.4347 71.3825 73.84C72.1718 74.288 72.8545 74.9387 73.4305 75.792L86.8065 94Z" fill="white"/>
<path d="M191.312 81.464L180.512 53.48C180.192 52.648 179.856 51.688 179.504 50.6C179.152 49.48 178.816 48.296 178.496 47.048C177.824 49.64 177.136 51.8 176.432 53.528L165.632 81.464H191.312ZM210.704 107H203.504C202.672 107 202 106.792 201.488 106.376C200.976 105.96 200.592 105.432 200.336 104.792L193.904 88.184H163.04L156.608 104.792C156.416 105.368 156.048 105.88 155.504 106.328C154.96 106.776 154.288 107 153.488 107H146.288L173.792 38.216H183.2L210.704 107Z" fill="white"/>
<line x1="67.3595" y1="0.652489" x2="125.359" y2="60.6525" stroke="white"/>
<line y1="-0.5" x2="84.1826" y2="-0.5" transform="matrix(0.688978 0.724782 -0.688978 0.724782 125 90.9859)" stroke="white"/>
<line x1="125.5" y1="59.9437" x2="125.5" y2="90.9859" stroke="white"/>
<line x1="67.4472" y1="0.776393" x2="96.4472" y2="58.7764" stroke="white"/>
<line x1="96.5" y1="57" x2="96.5" y2="89.1127" stroke="white"/>
<line x1="96.2933" y1="88.595" x2="183.293" y2="151.595" stroke="white"/>
</svg>
